# xmcd CD database file
#
# Track frame offsets:
#       150
#       15375
#       26439
#       37047
#       46792
#       60639
#       70708
#       80858
#       90898
#       100928
#       114697
#       125393
#       134393
#       147019
#       155991
#       167310
#       180698
#       192328
#       204156
#       215497
#       225907
#       237223
#       247107
#       257495
#       268592
#       278513
#       288817
#       298997
#       312153
#       324167
#
# Disc length: 4531 seconds
#
# Revision: 
# Submitted via: crip v3.9 (http://bach.dynet.com/crip)
#
# Revision: 0
# Processed by: cddbd v1.5.2PL0 Copyright (c) Steve Scherf et al.
#
DISCID=9e11b11e
DTITLE=Patsy Cline - The Definitive Collection (2/2)
DYEAR=2012
DGENRE=country
TTITLE0=Patsy Cline - The Wayward Wind
TTITLE1=Patsy Cline - South Of The Border
TTITLE2=Patsy Cline - San Antonio Rose
TTITLE3=Patsy Cline - True Love
TTITLE4=Patsy Cline - You Belong To Me
TTITLE5=Patsy Cline - Foolin' Round
TTITLE6=Patsy Cline - I Love You So Much It Hurts
TTITLE7=Patsy Cline - Seven Lonely Days
TTITLE8=Patsy Cline - Have You Ever Been Lonely
TTITLE9=Patsy Cline - That's My Desire
TTITLE10=Patsy Cline - Your Cheatin' Heart
TTITLE11=Patsy Cline - Anytime
TTITLE12=Patsy Cline - You Made Me Love You
TTITLE13=Patsy Cline - You Were Only Fooling
TTITLE14=Patsy Cline - Half As Much
TTITLE15=Patsy Cline - I Can't Help It
TTITLE16=Patsy Cline - Lonely Street
TTITLE17=Patsy Cline - Never No More
TTITLE18=Patsy Cline - Just Out Of Reach
TTITLE19=Patsy Cline - He Will Do For You
TTITLE20=Patsy Cline - Cry Not For Me
TTITLE21=Patsy Cline - I'm Blue Again
TTITLE22=Patsy Cline - How Can I Face Tomorrow
TTITLE23=Patsy Cline - There He Goes
TTITLE24=Patsy Cline - Lovin' In Vain
TTITLE25=Patsy Cline - Who Can I Count On
TTITLE26=Patsy Cline - Strange
TTITLE27=Patsy Cline - Imagine That
TTITLE28=Patsy Cline - You're Stronger Than Me
TTITLE29=Patsy Cline - Why Can't He Be You
EXTD=
EXTT0=
EXTT1=
EXTT2=
EXTT3=
EXTT4=
EXTT5=
EXTT6=
EXTT7=
EXTT8=
EXTT9=
EXTT10=
EXTT11=
EXTT12=
EXTT13=
EXTT14=
EXTT15=
EXTT16=
EXTT17=
EXTT18=
EXTT19=
EXTT20=
EXTT21=
EXTT22=
EXTT23=
EXTT24=
EXTT25=
EXTT26=
EXTT27=
EXTT28=
EXTT29=
PLAYORDER=
